<svg id="Capa_1" enable-background="new 0 0 512 512" height="512" viewBox="0 0 512 512" width="512" xmlns="http://www.w3.org/2000/svg"><g><g><path d="m343.415 0h-316.358c-14.943 0-27.057 12.114-27.057 27.057v201.886c0 14.943 12.114 27.057 27.057 27.057h59.027c2.76 0 5.407 1.096 7.359 3.048l45.789 45.789c6.556 6.556 17.765 1.913 17.765-7.359v-35.234c0-3.448 2.795-6.244 6.244-6.244h180.174c14.943 0 27.057-12.114 27.057-27.057v-201.886c0-14.943-12.114-27.057-27.057-27.057z" fill="#fea713"/></g><g><path d="m343.415 0h-31.22c14.943 0 27.057 12.114 27.057 27.057v104.808c0 4.943-3.464 9.267-8.319 10.192-23.795 4.533-42.906 23.418-47.316 48.21l-11.689 65.733h71.487c14.943 0 27.057-12.114 27.057-27.057v-201.886c0-14.943-12.114-27.057-27.057-27.057z" fill="#fe9901"/></g><g><g><path d="m490.372 243.875c-13.814-2.187-26.893 7.084-29.352 20.914l5.531-31.101c2.526-14.205-6.971-28.24-21.221-30.496-13.814-2.187-26.893 7.084-29.352 20.914l5.531-31.101c2.526-14.205-6.971-28.24-21.221-30.496-13.814-2.187-26.893 7.084-29.352 20.914l-3.755 21.114c2.459-13.83-6.622-27.042-20.343-29.751-14.155-2.795-27.908 7.105-30.434 21.31l-25.879 145.524-2.29-26.619c-1.237-14.375-14.042-25.473-28.391-23.965-13.909 1.463-24.143 13.803-22.939 27.798l6.945 80.743c4.769 55.437 46.178 100.76 100.96 110.502 66.847 11.887 130.675-32.666 142.562-99.514l24.22-136.195c2.527-14.203-6.969-28.238-21.22-30.495z" fill="#fed2a4"/></g><g><path d="m490.372 243.875c-.547-.087-1.093-.149-1.637-.2l-28.81 162.01c-11.057 62.177-67.051 105.057-128.613 101.181 4.399 1.305 8.897 2.396 13.499 3.214 66.847 11.887 130.675-32.666 142.562-99.514l24.22-136.195c2.526-14.204-6.97-28.239-21.221-30.496z" fill="#ffbd86"/></g></g><g><g><path d="m303.78 158.366c-22.498 0-40.801-18.303-40.801-40.801s18.303-40.801 40.801-40.801 40.801 18.303 40.801 40.801-18.303 40.801-40.801 40.801zm0-66.601c-14.227 0-25.801 11.574-25.801 25.801s11.574 25.801 25.801 25.801 25.801-11.574 25.801-25.801-11.574-25.801-25.801-25.801z" fill="#dff6fd"/></g><g><g><path d="m176.99 158.37c-7.295 0-7.734-.075-8.274-.167-3.602-.617-6.234-3.739-6.234-7.393v-66.545c0-4.142 3.358-7.5 7.5-7.5s7.5 3.358 7.5 7.5v59.101c4.43-.003 10.309-.025 15.78-.056 4.1-.004 7.519 3.316 7.542 7.458s-3.316 7.519-7.458 7.542c-7.617.043-12.801.06-16.356.06z" fill="#dff6fd"/></g></g><g><g><path d="m231.782 158.37c-7.295 0-7.734-.075-8.274-.167-3.602-.617-6.234-3.739-6.234-7.393v-66.545c0-4.142 3.358-7.5 7.5-7.5s7.5 3.358 7.5 7.5v59.101c4.43-.003 10.309-.025 15.78-.056h.043c4.123 0 7.476 3.33 7.499 7.458.023 4.142-3.316 7.519-7.458 7.542-7.617.043-12.801.06-16.356.06z" fill="#dff6fd"/></g></g><g><g><path d="m33.39 158.366c-4.142 0-7.5-3.358-7.5-7.5v-66.601c0-4.142 3.358-7.5 7.5-7.5s7.5 3.358 7.5 7.5v66.602c0 4.141-3.358 7.499-7.5 7.499z" fill="#dff6fd"/></g><g><path d="m79.479 158.366c-4.142 0-7.5-3.358-7.5-7.5v-66.601c0-4.142 3.358-7.5 7.5-7.5s7.5 3.358 7.5 7.5v66.602c0 4.141-3.358 7.499-7.5 7.499z" fill="#dff6fd"/></g><g><path d="m79.479 123.923h-46.089c-4.142 0-7.5-3.358-7.5-7.5s3.358-7.5 7.5-7.5h46.089c4.142 0 7.5 3.358 7.5 7.5s-3.358 7.5-7.5 7.5z" fill="#dff6fd"/></g></g><g><g><path d="m138.762 158.366h-28.063c-4.142 0-7.5-3.358-7.5-7.5v-66.601c0-4.142 3.358-7.5 7.5-7.5h28.063c4.142 0 7.5 3.358 7.5 7.5s-3.358 7.5-7.5 7.5h-20.563v51.602h20.563c4.142 0 7.5 3.358 7.5 7.5s-3.358 7.499-7.5 7.499z" fill="#dff6fd"/></g><g><path d="m136.693 125.065h-25.994c-4.142 0-7.5-3.358-7.5-7.5s3.358-7.5 7.5-7.5h25.994c4.142 0 7.5 3.358 7.5 7.5s-3.358 7.5-7.5 7.5z" fill="#dff6fd"/></g></g></g><g><path d="m174.907 382.809c-3.852 0-7.128-2.949-7.464-6.858l-2.897-33.688c-.355-4.126 2.703-7.76 6.83-8.115 4.131-.358 7.76 2.703 8.115 6.83l2.898 33.688c.355 4.126-2.703 7.76-6.83 8.115-.219.018-.437.028-.652.028z" fill="#fd8087"/></g><g><path d="m471.213 141.817c-2.345 0-4.653-1.096-6.117-3.151-9.289-13.05-21.879-23.126-36.406-29.139-3.827-1.584-5.646-5.971-4.062-9.798s5.97-5.645 9.798-4.062c17.134 7.091 31.965 18.952 42.891 34.3 2.401 3.375 1.613 8.058-1.761 10.459-1.32.94-2.839 1.391-4.343 1.391z" fill="#fd8087"/></g><g><path d="m209.546 396.939c-3.852 0-7.128-2.949-7.464-6.858l-5.828-67.75c-.355-4.127 2.703-7.76 6.83-8.115 4.125-.36 7.76 2.702 8.115 6.83l5.827 67.75c.355 4.127-2.703 7.76-6.83 8.115-.217.019-.435.028-.65.028z" fill="#fd8087"/></g><g><path d="m444.09 161.13c-2.345 0-4.653-1.095-6.116-3.15-4.523-6.353-10.188-11.454-16.837-15.163-3.617-2.018-4.914-6.586-2.896-10.204 2.017-3.617 6.587-4.915 10.203-2.896 8.607 4.801 15.925 11.382 21.749 19.561 2.402 3.374 1.615 8.057-1.759 10.46-1.32.941-2.839 1.392-4.344 1.392z" fill="#fd8087"/></g><g><path d="m351.819 438.571.781-4.393c4.51-25.362-7.77-50.474-30.556-62.488l-25.983-13.7c-3.015-1.589-4.985-4.691-5.143-8.094l-.386-8.322-.008.046-2.29-26.619c-.747-8.687-5.723-16.172-12.708-20.406v47.025c0 .116.003.231.008.347l.399 8.623c.402 8.691 5.434 16.611 13.131 20.669l25.983 13.7c16.99 8.958 26.146 27.682 22.784 46.593l-.781 4.392c-.726 4.078 1.992 7.972 6.07 8.698.444.079.886.117 1.322.117 3.569 0 6.731-2.554 7.377-6.188z" fill="#ffbd86"/></g><g><path d="m455.959 207.561-22.241 125.065-35.906-6.385 23.714-133.353c1.769-10.214-2.668-20.321-10.609-26.009l-27.872 156.737-35.907-6.385 20.06-112.809c1.762-10.179-2.721-20.003-10.693-25.537l-24.135 135.72-3.174-.564c-4.073-.724-7.973 1.993-8.697 6.071-.726 4.078 1.992 7.972 6.07 8.697l122.464 21.778c.444.079.886.117 1.322.117 3.566 0 6.729-2.555 7.375-6.188.726-4.078-1.992-7.972-6.07-8.697l-3.174-.564 18.082-101.677c1.77-10.218-2.666-20.328-10.609-26.017z" fill="#ffbd86"/></g></g></svg>