<svg height="512" viewBox="0 0 64 64" width="512" xmlns="http://www.w3.org/2000/svg" xmlns:xlink="http://www.w3.org/1999/xlink"><linearGradient id="linear-gradient" gradientUnits="userSpaceOnUse" x1="32" x2="32" y1="1.304" y2="63.304"><stop offset="0" stop-color="#ffe100"/><stop offset="1" stop-color="#f98900"/></linearGradient><linearGradient id="linear-gradient-2" gradientUnits="userSpaceOnUse" x1="14" x2="50" y1="41.001" y2="41.001"><stop offset="0" stop-color="#b8b4b2"/><stop offset=".143" stop-color="#d0ccc9"/><stop offset=".374" stop-color="#f2edea"/><stop offset=".5" stop-color="#fffaf6"/><stop offset=".638" stop-color="#f9f5f1"/><stop offset=".825" stop-color="#e8e5e3"/><stop offset="1" stop-color="#d1d1d1"/></linearGradient><linearGradient id="linear-gradient-3" gradientUnits="userSpaceOnUse" x1="32" x2="32" y1="53.275" y2="37.041"><stop offset="0" stop-color="#69101b"/><stop offset=".427" stop-color="#400a10"/></linearGradient><linearGradient id="linear-gradient-4" x1="32" x2="32" xlink:href="#linear-gradient-2" y1="38.163" y2="44.885"/><linearGradient id="linear-gradient-5" gradientUnits="userSpaceOnUse" x1="32" x2="32" y1="38.163" y2="44.885"><stop offset="0" stop-color="#ababab" stop-opacity=".5"/><stop offset=".541" stop-color="#c1c1c1" stop-opacity=".216"/><stop offset="1" stop-color="#d1d1d1" stop-opacity="0"/></linearGradient><linearGradient id="linear-gradient-6" gradientUnits="userSpaceOnUse" x1="52.619" x2="44.688" y1="9.211" y2="32.611"><stop offset="0" stop-color="#ff5f6f"/><stop offset=".346" stop-color="#ff2d44"/><stop offset=".722" stop-color="#d41e32"/><stop offset=".853" stop-color="#d61f33"/><stop offset=".918" stop-color="#de2337"/><stop offset=".968" stop-color="#eb293e"/><stop offset="1" stop-color="#f82f44"/></linearGradient><linearGradient id="linear-gradient-7" gradientUnits="userSpaceOnUse" x1="51.671" x2="49.927" y1="8.9" y2="17.703"><stop offset="0" stop-color="#ff8a95"/><stop offset=".66" stop-color="#ff495d"/><stop offset="1" stop-color="#ff2d44"/></linearGradient><linearGradient id="linear-gradient-8" gradientUnits="userSpaceOnUse" x1="59.035" x2="57.227" y1="16.73" y2="21.884"><stop offset="0" stop-color="#ff5f5f"/><stop offset=".283" stop-color="#ff565a"/><stop offset=".746" stop-color="#ff3d4d"/><stop offset="1" stop-color="#ff2d44"/></linearGradient><linearGradient id="linear-gradient-9" x1="48.384" x2="47.197" xlink:href="#linear-gradient-8" y1="14.455" y2="17.84"/><linearGradient id="linear-gradient-10" gradientTransform="matrix(-1 0 0 1 20 0)" x1="8.619" x2=".688" xlink:href="#linear-gradient-6" y1="9.211" y2="32.611"/><linearGradient id="linear-gradient-11" gradientTransform="matrix(-1 0 0 1 20 0)" x1="7.671" x2="5.927" xlink:href="#linear-gradient-7" y1="8.9" y2="17.703"/><linearGradient id="linear-gradient-12" gradientTransform="matrix(.832 -.555 .555 .832 -74.259 28.539)" x1="88.755" x2="86.947" xlink:href="#linear-gradient-8" y1="39.473" y2="44.626"/><linearGradient id="linear-gradient-13" gradientTransform="matrix(.832 -.555 .555 .832 -74.259 28.539)" x1="78.104" x2="76.916" xlink:href="#linear-gradient-8" y1="37.198" y2="40.583"/><g id="_13-_Smiling_Face_with_Heart-Eyes" data-name="13- Smiling Face with Heart-Eyes"><path d="m32 63c-27.7 0-31.038-24-31-30v-2c-.038-6 3.3-30 31-30 27.7 0 31.038 24 31 30v2c.038 6-3.3 30-31 30z" fill="url(#linear-gradient)"/><path d="m48.806 37.034a.986.986 0 0 1 1.19 1.1 14.5 14.5 0 0 1 -.43 2.46 34.766 34.766 0 0 1 -17.566 4.406 34.766 34.766 0 0 1 -17.566-4.409 14.5 14.5 0 0 1 -.43-2.46.986.986 0 0 1 1.19-1.1 63.8 63.8 0 0 0 16.806 2.369 63.8 63.8 0 0 0 16.806-2.366z" fill="url(#linear-gradient-2)"/><path d="m50 37h-.008a.97.97 0 0 0 -1.186-.966 63.8 63.8 0 0 1 -16.806 2.366 63.8 63.8 0 0 1 -16.806-2.369.97.97 0 0 0 -1.186.969h-.008v1h.008a.98.98 0 0 0 0 .133 14.5 14.5 0 0 0 .43 2.46 12.87 12.87 0 0 0 .49 1.559 15.591 15.591 0 0 0 5.089 6.709 19.263 19.263 0 0 0 23.974 0 15.591 15.591 0 0 0 5.089-6.709 12.87 12.87 0 0 0 .49-1.559 14.5 14.5 0 0 0 .43-2.46.98.98 0 0 0 0-.133z" fill="#ed8d06"/><path d="m49.992 38a.97.97 0 0 0 -1.186-.966 63.8 63.8 0 0 1 -16.806 2.366 63.8 63.8 0 0 1 -16.806-2.369.97.97 0 0 0 -1.186.969h-.008v1h.008a.98.98 0 0 0 0 .133 14.5 14.5 0 0 0 .43 2.46 12.87 12.87 0 0 0 .49 1.559 15.591 15.591 0 0 0 5.089 6.709 19.263 19.263 0 0 0 23.974 0 15.591 15.591 0 0 0 5.089-6.709 12.87 12.87 0 0 0 .49-1.559 14.5 14.5 0 0 0 .43-2.46.98.98 0 0 0 0-.133v-1z" fill="#f9bf06"/><path d="m38.918 51.76a19.918 19.918 0 0 1 -13.836 0c.329-.87 1.818-3.76 6.918-3.76s6.589 2.89 6.918 3.76z" fill="#8f030e"/><path d="m49.076 42.152a15.591 15.591 0 0 1 -5.089 6.709 19.067 19.067 0 0 1 -5.069 2.9c-.329-.871-1.818-3.761-6.918-3.761s-6.589 2.889-6.918 3.759a19.067 19.067 0 0 1 -5.069-2.9 15.591 15.591 0 0 1 -5.089-6.709 12.814 12.814 0 0 1 -.49-1.559 34.766 34.766 0 0 0 17.566 4.409 34.766 34.766 0 0 0 17.566-4.409 12.814 12.814 0 0 1 -.49 1.561z" fill="url(#linear-gradient-3)"/><path d="m48.806 37.034a.986.986 0 0 1 1.19 1.1 14.5 14.5 0 0 1 -.43 2.46 34.766 34.766 0 0 1 -17.566 4.406 34.766 34.766 0 0 1 -17.566-4.409 14.5 14.5 0 0 1 -.43-2.46.986.986 0 0 1 1.19-1.1 63.8 63.8 0 0 0 16.806 2.369 63.8 63.8 0 0 0 16.806-2.366z" fill="url(#linear-gradient-4)"/><path d="m48.806 37.034a.986.986 0 0 1 1.19 1.1 14.5 14.5 0 0 1 -.43 2.46 34.766 34.766 0 0 1 -17.566 4.406 34.766 34.766 0 0 1 -17.566-4.409 14.5 14.5 0 0 1 -.43-2.46.986.986 0 0 1 1.19-1.1 63.8 63.8 0 0 0 16.806 2.369 63.8 63.8 0 0 0 16.806-2.366z" fill="url(#linear-gradient-5)"/><path d="m58.467 12.849c-4.89-1.278-7.467 1.151-7.467 1.151s-1.334-3.451-6.224-4.729a5.734 5.734 0 0 0 -7.44 4.189 9.125 9.125 0 0 0 -.131 4.372 32.912 32.912 0 0 0 8.795 15.168 30.676 30.676 0 0 0 14.635-9.044 9.264 9.264 0 0 0 2.127-3.85c.524-1.906.595-5.979-4.295-7.257z" fill="#ec3a4a"/><path d="m58.467 12.849c-4.89-1.278-7.467 1.151-7.467 1.151s-1.334-3.451-6.224-4.729a5.734 5.734 0 0 0 -7.44 4.19 9.121 9.121 0 0 0 -.131 4.371 32.912 32.912 0 0 0 8.795 15.168 30.676 30.676 0 0 0 14.635-9.044 9.264 9.264 0 0 0 2.127-3.85c.524-1.906.595-5.979-4.295-7.257z" fill="url(#linear-gradient-6)"/><path d="m43.974 11.056c5.09 1.332 6.512 4.806 6.512 4.806s2.651-2.409 7.741-1.077c3.237.847 4.4 2.805 4.685 4.609.327-2.068-.1-5.409-4.445-6.545-4.89-1.278-7.467 1.151-7.467 1.151s-1.334-3.451-6.224-4.729c-4.296-1.123-6.376 1.488-7.176 3.429 1.176-1.393 3.179-2.48 6.374-1.644z" fill="url(#linear-gradient-7)"/><path d="m56.267 20.108a1.656 1.656 0 0 0 1.759 1.882 4.353 4.353 0 0 0 1.068-.255 2.85 2.85 0 0 0 1.906-2.658 2.872 2.872 0 0 0 -.709-1.64c-.721-.861-3.266-2.207-4.135-.877-.4.615.116 1.713.152 2.392a6.765 6.765 0 0 1 -.041 1.156z" fill="url(#linear-gradient-8)"/><path d="m47.107 16.739c-.051.716.3 1.332.7 1.254a1.2 1.2 0 0 0 .428-.17 2.084 2.084 0 0 0 .765-1.772 2.67 2.67 0 0 0 -.283-1.093c-.289-.574-1.307-1.471-1.654-.585a4.9 4.9 0 0 0 .061 1.6 7.625 7.625 0 0 1 -.017.766z" fill="url(#linear-gradient-9)"/><path d="m5.533 12.849c4.89-1.278 7.467 1.151 7.467 1.151s1.334-3.451 6.224-4.729a5.734 5.734 0 0 1 7.44 4.19 9.121 9.121 0 0 1 .131 4.371 32.912 32.912 0 0 1 -8.795 15.168 30.676 30.676 0 0 1 -14.635-9.044 9.264 9.264 0 0 1 -2.127-3.85c-.524-1.906-.595-5.979 4.295-7.257z" fill="url(#linear-gradient-10)"/><path d="m20.026 11.056c-5.09 1.332-6.512 4.806-6.512 4.806s-2.651-2.409-7.741-1.077c-3.237.847-4.4 2.805-4.685 4.609-.327-2.068.1-5.409 4.445-6.545 4.89-1.278 7.467 1.151 7.467 1.151s1.334-3.451 6.224-4.729c4.3-1.123 6.381 1.488 7.179 3.433-1.179-1.397-3.182-2.484-6.377-1.648z" fill="url(#linear-gradient-11)"/><path d="m21.056 16.5a1.656 1.656 0 0 0 2.507.591 4.336 4.336 0 0 0 .747-.806 2.848 2.848 0 0 0 .109-3.266 2.875 2.875 0 0 0 -1.5-.971c-1.078-.317-3.942-.025-3.927 1.564.006.734 1.047 1.361 1.453 1.906a6.819 6.819 0 0 1 .611.982z" fill="url(#linear-gradient-12)"/><path d="m11.565 18.774c.355.624.99.941 1.281.654a1.2 1.2 0 0 0 .261-.379 2.087 2.087 0 0 0 -.349-1.9 2.694 2.694 0 0 0 -.843-.753c-.558-.317-1.9-.5-1.7.432.094.43.673.924.936 1.293.149.213.287.431.414.653z" fill="url(#linear-gradient-13)"/><g fill="#ed8d06"><path d="m37.205 17.832a9.121 9.121 0 0 1 .131-4.371 6.976 6.976 0 0 1 1.2-2.376 6.607 6.607 0 0 0 -2.2 3.376 9.121 9.121 0 0 0 -.131 4.371 32.917 32.917 0 0 0 8.795 15.168 30.491 30.491 0 0 0 14.058-8.434 30.365 30.365 0 0 1 -13.058 7.434 32.917 32.917 0 0 1 -8.795-15.168z"/><path d="m26.8 17.832a32.917 32.917 0 0 1 -8.8 15.168 30.365 30.365 0 0 1 -13.058-7.434 30.491 30.491 0 0 0 14.058 8.434 32.917 32.917 0 0 0 8.8-15.168 9.121 9.121 0 0 0 -.131-4.371 6.607 6.607 0 0 0 -2.2-3.376 6.976 6.976 0 0 1 1.2 2.376 9.121 9.121 0 0 1 .131 4.371z"/></g></g></svg>