<svg width="684" height="684" viewBox="0 0 684 684" fill="none" xmlns="http://www.w3.org/2000/svg">
<g clip-path="url(#clip0_599_25)">
<mask id="mask0_599_25" style="mask-type:luminance" maskUnits="userSpaceOnUse" x="0" y="0" width="684" height="684">
<path d="M0.5 0.499878H683.167V683.167H0.5V0.499878Z" fill="white"/>
</mask>
<g mask="url(#mask0_599_25)">
<path d="M8420.5 10836.5H-4815.5V-1435.5H8420.5V10836.5Z" stroke="black" stroke-width="1.33333" stroke-miterlimit="10"/>
</g>
<mask id="mask1_599_25" style="mask-type:luminance" maskUnits="userSpaceOnUse" x="0" y="0" width="684" height="684">
<path d="M0.5 0.499878H683.167V683.167H0.5V0.499878Z" fill="white"/>
</mask>
<g mask="url(#mask1_599_25)">
<path d="M683.167 343.167C683.167 530.767 529.433 683.167 341.833 683.167C154.233 683.167 0.5 530.767 0.5 343.167C0.5 155.567 154.233 0.499878 341.833 0.499878C529.433 0.499878 683.167 155.567 683.167 343.167Z" fill="#FFDA2D"/>
<path d="M683.167 343.167C683.167 530.767 529.433 683.167 341.833 683.167V0.499878C529.433 0.499878 683.167 155.567 683.167 343.167Z" fill="#FDBF00"/>
<path d="M395.832 357.166C388.232 365.166 375.435 365.166 367.835 357.166L351.032 340.367C348.232 337.566 345.033 334.766 341.833 332.366C310.235 307.566 267.033 302.766 230.632 321.167C221.032 325.967 209.033 321.966 203.832 311.966C199.033 302.366 203.035 290.367 213.035 285.166C254.633 264.766 302.233 265.166 341.833 285.567C355.435 292.366 367.835 301.167 379.032 312.366L395.832 329.167C403.833 336.768 403.833 349.566 395.832 357.166Z" fill="#725D57"/>
<path d="M261.833 203.167C228.748 203.167 201.833 176.252 201.833 143.167C201.833 110.081 228.748 83.1665 261.833 83.1665C294.919 83.1665 321.833 110.081 321.833 143.167C321.833 176.252 294.919 203.167 261.833 203.167Z" fill="#725D57"/>
<path d="M461.833 263.167C428.748 263.167 401.833 236.252 401.833 203.167C401.833 170.081 428.748 143.167 461.833 143.167C494.919 143.167 521.833 170.081 521.833 203.167C521.833 236.252 494.919 263.167 461.833 263.167Z" fill="#53433F"/>
<path d="M353.035 519.966C349.835 523.166 345.833 525.566 341.833 527.166C331.433 531.167 319.433 528.767 310.632 519.966L273.833 483.166H181.833C170.632 483.166 161.833 491.966 161.833 503.166C161.833 514.367 170.632 523.166 181.833 523.166H251.833C268.232 523.166 281.833 536.767 281.833 553.166C281.833 569.566 268.232 583.166 251.833 583.166H181.833C170.632 583.166 161.833 591.966 161.833 603.166C161.833 614.367 170.632 623.166 181.833 623.166H211.833C228.232 623.166 241.833 636.767 241.833 653.166C241.833 669.566 228.232 683.166 211.833 683.166H135.435C61.8333 683.166 0.5 623.166 0.5 549.566C0.5 498.367 31.4333 451.966 79.4333 427.966C107.035 414.367 121.833 391.966 121.833 363.166V343.166C121.833 331.966 130.632 323.166 141.833 323.166C175.035 323.166 201.833 349.966 201.833 383.166V423.166H281.833C292.233 423.166 302.635 427.566 310.235 434.766C325.833 450.366 335.435 460.366 341.833 466.367C354.633 479.167 353.432 477.566 355.435 480.767C365.035 492.766 363.432 509.566 353.035 519.966Z" fill="#FFF7CC"/>
<path d="M395.832 357.166C388.232 365.166 375.435 365.166 367.835 357.166L351.032 340.367C348.232 337.566 345.033 334.766 341.833 332.366V285.567C355.435 292.366 367.835 301.167 379.032 312.366L395.832 329.167C403.833 336.768 403.833 349.566 395.832 357.166Z" fill="#53433F"/>
</g>
</g>
<defs>
<clipPath id="clip0_599_25">
<rect width="682.667" height="682.667" fill="white" transform="translate(0.5 0.5)"/>
</clipPath>
</defs>
</svg>
