<svg id="Capa_1" enable-background="new 0 0 512 512" viewBox="0 0 512 512" xmlns="http://www.w3.org/2000/svg"><g><path d="m63.452 223.962-8.159 30.45c-6.985 26.067 3.433 52.698 24.132 67.556 3.406 2.445 4.908 6.768 3.822 10.818l-28.916 107.918c-2.718 10.142-9.783 18.562-19.3 23l-28.294 13.192c-4.294 2.002-3.745 8.274.831 9.5l94.866 25.419c4.576 1.226 8.187-3.931 5.47-7.812l-17.908-25.573c-6.023-8.601-7.932-19.426-5.214-29.568l28.916-107.917c1.085-4.05 4.547-7.043 8.719-7.457 25.355-2.519 47.692-20.372 54.677-46.44l8.159-30.45z" fill="#62dbfb"/><path d="m448.548 223.962 8.159 30.45c6.985 26.067-3.433 52.698-24.132 67.556-3.406 2.445-4.908 6.768-3.822 10.818l28.916 107.917c2.718 10.142 9.783 18.562 19.3 23l28.295 13.193c4.294 2.002 3.745 8.274-.831 9.5l-94.866 25.419c-4.576 1.226-8.188-3.931-5.47-7.812l17.908-25.573c6.023-8.601 7.932-19.426 5.214-29.568l-28.916-107.917c-1.085-4.05-4.547-7.043-8.719-7.457-25.355-2.519-47.692-20.372-54.677-46.44l-8.159-30.45z" fill="#62dbfb"/><path d="m208.804 168.704 20.01-74.68c.725-2.707-.881-5.489-3.588-6.215l-111.997-30.009c-2.707-.725-5.489.881-6.215 3.588l-26.766 99.894 33.893 19.713z" fill="#dff6fd"/><path d="m119.39 170.307c-20.834 0-25.144-6.384-39.142-9.026l-16.795 62.681c-6.155 22.971 1.204 46.38 17.204 61.785 7.427 7.15 17.215 8.472 27.878 11.329 33.634 9.012 67.707-6.844 76.719-40.478l23.551-87.894c-12.261-2.86-17.207-8.546-36.871-8.546-26.273.001-26.273 10.149-52.544 10.149z" fill="#ffe177"/><path d="m225.226 87.81-20.429-5.474-24.121 90.021 28.128-3.652 20.01-74.68c.726-2.708-.881-5.49-3.588-6.215z" fill="#c8effe"/><path d="m183.719 161.002-21.808 81.388c-9.012 33.634-43.584 53.594-77.218 44.582-1.368-.367-2.714-.776-4.036-1.225 7.427 7.15 16.715 12.576 27.378 15.433 33.634 9.012 68.206-10.948 77.218-44.582l23.551-87.894c-9.358-2.182-14.455-6.011-25.085-7.702z" fill="#ffd15b"/><path d="m303.196 168.704-20.01-74.68c-.725-2.707.881-5.489 3.588-6.215l111.997-30.009c2.707-.725 5.489.881 6.215 3.588l26.766 99.894-33.893 19.713z" fill="#dff6fd"/><path d="m392.61 170.307c20.835 0 25.144-6.384 39.142-9.026l16.795 62.681c9.012 33.634-11.734 63.171-45.368 72.183-10.174 2.726-19.648 7.837-29.26 5.684-22.165-4.963-40.886-21.771-47.172-45.231l-23.551-87.894c12.261-2.86 17.207-8.546 36.871-8.546 26.272.001 26.272 10.149 52.543 10.149z" fill="#ffe177"/><path d="m408.046 175.07 23.707-13.789-26.766-99.894c-.725-2.707-3.508-4.313-6.215-3.588l-20.664 5.537z" fill="#c8effe"/><path d="m448.548 223.962-16.795-62.681c-10.199 1.924-15.255 5.836-25.307 7.817l14.701 54.863c9.012 33.634-10.948 68.206-44.582 77.218-.881.236-1.763.452-2.645.649 9.612 2.152 19.872 2.078 30.046-.649 33.634-9.011 53.594-43.583 44.582-77.217z" fill="#ffd15b"/><g fill="#9be69d"><path d="m256 30.985c-4.204 0-7.611-3.408-7.611-7.611v-15.763c0-4.203 3.407-7.611 7.611-7.611s7.612 3.408 7.612 7.611v15.762c0 4.204-3.408 7.612-7.612 7.612z"/><path d="m222.564 44.835c-1.947 0-3.896-.743-5.383-2.229l-11.145-11.146c-2.972-2.972-2.972-7.792 0-10.764 2.973-2.972 7.792-2.972 10.765 0l11.146 11.146c2.972 2.972 2.972 7.792 0 10.764-1.487 1.486-3.436 2.229-5.383 2.229z"/><path d="m289.436 44.835c-1.947 0-3.896-.743-5.383-2.229-2.972-2.972-2.972-7.792 0-10.764l11.146-11.146c2.973-2.972 7.792-2.972 10.765 0 2.972 2.972 2.972 7.792 0 10.764l-11.146 11.146c-1.486 1.486-3.434 2.229-5.382 2.229z"/></g><g><g><g><circle cx="98.379" cy="212.519" fill="#ffd15b" r="7.611"/></g></g></g><g><g><g><circle cx="129.903" cy="259.806" fill="#ffd15b" r="7.611"/></g></g></g><g><g><g><circle cx="161.427" cy="196.757" fill="#ffd15b" r="7.611"/></g></g></g><g><g><g><circle cx="366.335" cy="212.519" fill="#ffd15b" r="7.611"/></g></g></g><g><g><g><circle cx="397.859" cy="244.044" fill="#ffd15b" r="7.611"/></g></g></g></g><g/><g/><g/><g/><g/><g/><g/><g/><g/><g/><g/><g/><g/><g/><g/></svg>