<svg width="100" height="100" viewBox="0 0 100 100" fill="none" xmlns="http://www.w3.org/2000/svg">
<path d="M18.8058 74.699C9.23763 54.7536 19.9448 41.7432 26.4945 37.7312C29.228 37.0435 29.3422 39.7372 29.0575 41.17C29.0575 56.6449 36.7462 57.5046 36.7462 55.7852C36.7462 54.7409 35.4333 42.7307 34.6763 32.6177C34.2504 26.9272 34.9864 20.9993 38.412 16.4354C45.96 6.37931 55.9314 7.21624 60.6666 9.36059C54.6865 36.8715 69.2096 23.9758 81.1697 48.9075C90.1004 67.524 75.9097 82.5953 66.1062 88.9484C64.7859 89.8041 63.3247 90.4098 61.7891 90.7524C49.8852 93.4078 27.7606 93.3658 18.8058 74.699Z" fill="url(#paint0_linear_948_49)"/>
<defs>
<linearGradient id="paint0_linear_948_49" x1="49.5" y1="8" x2="49.5" y2="92" gradientUnits="userSpaceOnUse">
<stop stop-color="#460083"/>
<stop offset="1" stop-color="#780ADF"/>
</linearGradient>
</defs>
</svg>
