<svg width="100" height="100" viewBox="0 0 100 100" fill="none" xmlns="http://www.w3.org/2000/svg">
<path d="M47.0513 64.1244L37.363 73.8819L21.9655 59.9376L18.0036 56.4256L14.0418 52.7752L11.4121 50.0763L8.78241 46.8238C6.5679 43.2944 3.27389 35.4746 10.028 28.0007C13.419 24.4022 22.4845 19.212 31.6192 27.2395" stroke="url(#paint0_linear_947_22)" stroke-width="6"/>
<path d="M64.7673 77.4807L48.2578 61.6449L40.2303 54.1538L35.5245 49.4394L33.5177 47.1514L32.0644 45.1402C28.9204 39.973 26.639 29.9295 38.431 25.2791C41.6605 23.8027 49.1021 22.8431 57.4617 29.708C62.3452 34.4368 65.3508 41.8738 54.0016 52.614" stroke="url(#paint1_linear_947_22)" stroke-width="6"/>
<path d="M60.6666 77.2218L76.0509 62.4501L83.5208 55.0642L87.2558 51.3713L90.8488 47.6784C95.4621 42.51 95.0078 36.3639 89.5003 29.659C86.3065 26.1436 77.5201 21.3198 67.3567 28.4717" stroke="url(#paint2_linear_947_22)" stroke-width="6"/>
<defs>
<linearGradient id="paint0_linear_947_22" x1="26.5257" y1="23" x2="26.5257" y2="73.8819" gradientUnits="userSpaceOnUse">
<stop stop-color="#FF76B7"/>
<stop offset="1" stop-color="#FE3F97"/>
</linearGradient>
<linearGradient id="paint1_linear_947_22" x1="47.1523" y1="24.2207" x2="47.1523" y2="77.4807" gradientUnits="userSpaceOnUse">
<stop stop-color="#FF76B7"/>
<stop offset="1" stop-color="#FE3F97"/>
</linearGradient>
<linearGradient id="paint2_linear_947_22" x1="77.3333" y1="24.7773" x2="77.3333" y2="77.2218" gradientUnits="userSpaceOnUse">
<stop stop-color="#FF76B7"/>
<stop offset="1" stop-color="#FE3F97"/>
</linearGradient>
</defs>
</svg>
